<svg viewBox="0 0 671 794" xmlns="http://www.w3.org/2000/svg"><path fill="#e8cdba" d="M312.092 788.199c-84.38-6.75-159.57-61.43-202.37-132.94-28.88-46.71-46.439-100.03-53.133-154.43-16.359 2.02-32.842-4.69-43.036-17.62-15.994-22-10.67-51.37-3.782-75.71 4.492-17.4 17.718-30.75 34.111-35.95-5.055-16.52-2.101-35.17 4.375-51.26 6.091-24.57 7.701-49.88 11.106-74.86 3.598-28.08-1.136-56.16-2.419-84.25-1.476-20.98-3.094-41.95-5.33-62.85-10.806-20.33-9.33-43.68-6.251-65.42 5.642-19.05 32.109-25.02 46.569-12 16.08 4.92 22.42 35.96 40.98 23.31 15.41-11.62 34.27-19.92 53.98-16.73 16.65-3.36 32.34 21.12 44.7 1.09 16.42-11.61 33.08-31.02 55.23-26.8 19.55 4.96 34.15 21.54 55.23 22.52 18.87 7.35 34.86-6.54 53.86-5.29 21.48-3.93 36.65 17.76 57.74 17.52 19.73-.19 39.12-6.27 58.28-9.79 19.11-7.52 35.87 10.79 54.17 5.48 15.74-4.36 29.97-14.83 46.59-14.73 11.13 3.23 16.42 12.35 28.87 6.69 18.68-2.29 26.62 19.51 23.01 34.82.96 26.06-13.57 49.09-17.87 74.32-3.64 19.83-11.03 38.95-12.24 59.45-5.33 34.81-7.05 70.07-5.82 105.27-.21 18.71.71 37.82-2.48 56.24-5.77 8.16-11.06 22.41 5.32 18.45 22.26 5.09 29.32 30.72 31.47 50.56 3.11 20.93 3.38 43.75-5.98 63.11-9.3 16.87-30.34 21.49-47.86 17.4-12.07 5.72-5.87 26.1-11.6 37.63-19.47 88.76-72.46 173.2-153.18 217.9-40.15 21.9-86.58 32.46-132.24 28.87z"/><path fill="#b9290e" d="M596.592 388.479c-6.31-3.96-15.71-24.48-4.06-10.37 13.57 20.94 24.19-14.58 29.03-25.48 4.03-19 1.23-38.83 2.07-58.18.33-25.38-1.51-51.09 3.81-76.02.75-28.05 7.05-55.41 14.66-82.29 2.75-28.02 20.68-52.85 18.46-81.58 5.11-18.58-15.44-33.96-31.06-22.55-10.21 2.34-11.49-18.09-25.09-10.29-14.99 6.61-30.51 11.87-46.09 16.83-15.81-3.72-32.16-13.54-49.8-7.01-20.56 2.93-41.67 12.14-62.65 7.32-18.8-2.67-33.39-20.1-53.62-16.54-18.43 3.91-36.56 12.68-55.3 4.59-20.37.52-33.46-17.67-51.28-21.43-16.24-1.82-29.58 9.86-42.07 18.24-9.82 13.59-26.13 24.05-41.19 11.24-20.13-6.5-43.61-5.12-60.54 8.62-12.21 12.32-27.57 10.05-35.88-5.07-11.35-13.19-31.14-28.2-48.291-15.65-14.162 15.85-11.884 41.96-7.639 61.6 11.355 23.09 7.166 49.48 10.215 74.24 1.881 31.78 7.795 63.8 1.838 95.49-3.306 28.28-5.125 57.29-15.43 84.14-3.985 15.17-1.601 45.2 21.387 36.36 14.7-9.94 20.11-28.28 29.12-42.72 12.74-16.42 22.88-34.47 31.52-53.33 8.66-15.91 31.3-23.28 31.96-43.59-3.37-13.18-12.33 11.95-16.33 15.78-1.65 6.75-14.1 13.2-6.29 2.25 8.48-14.83 19.33-28.28 29.16-42.01 0-13.79 9.48-4.44 15.44-14.12 7.14-4.55 23.06-19.66 26.77-14.56-10.79 11.6-30.91 14.54-34.22 31.61-1.84 14.26-4.55-5.86-8.46 5.52-4.78 8.17-3.58 26.56 6.6 11.57 15.08-17.41 34.69-29.72 51.96-44.69 15.91-12.24 37.32-8.3 53.63.83 29.98 13.13 61.96 28.49 95.66 23.66 19.5 1.16 37.7-6.1 56.54-8.11 19.39-6.66 36.53 3.41 50.72 15.73 19.49 13.94 37.72 30.48 49.2 51.88 14.18 15.49 13.18 38.64 26.62 54.67 10.21 15.48 12.86 34.2 20.57 50.7 3.75 6.54 10.02 13.64 18.35 12.72z"/><path d="M312.092 788.199c-84.38-6.75-159.57-61.43-202.37-132.94-28.88-46.71-46.439-100.03-53.133-154.43-16.359 2.02-32.842-4.69-43.036-17.62-15.994-22-10.67-51.37-3.782-75.71 4.492-17.4 17.718-30.75 34.111-35.95-5.055-16.52-2.101-35.17 4.375-51.26 6.091-24.57 7.701-49.88 11.106-74.86 3.598-28.08-1.136-56.16-2.419-84.25-1.476-20.98-3.094-41.95-5.33-62.85-10.806-20.33-9.33-43.68-6.251-65.42 5.642-19.05 32.109-25.02 46.569-12 16.08 4.92 22.42 35.96 40.98 23.31 15.41-11.62 34.27-19.92 53.98-16.73 16.65-3.36 32.34 21.12 44.7 1.09 16.42-11.61 33.08-31.02 55.23-26.8 19.55 4.96 34.15 21.54 55.23 22.52 18.87 7.35 34.86-6.54 53.86-5.29 21.48-3.93 36.65 17.76 57.74 17.52 19.73-.19 39.12-6.27 58.28-9.79 19.11-7.52 35.87 10.79 54.17 5.48 15.74-4.36 29.97-14.83 46.59-14.73 11.13 3.23 16.42 12.35 28.87 6.69 18.68-2.29 26.62 19.51 23.01 34.82.96 26.06-13.57 49.09-17.87 74.32-3.64 19.83-11.03 38.95-12.24 59.45-5.33 34.81-7.05 70.07-5.82 105.27-.21 18.71.71 37.82-2.48 56.24-5.77 8.16-11.06 22.41 5.32 18.45 22.26 5.09 29.32 30.72 31.47 50.56 3.11 20.93 3.38 43.75-5.98 63.11-9.3 16.87-30.34 21.49-47.86 17.4-12.07 5.72-5.87 26.1-11.6 37.63-19.47 88.76-72.46 173.2-153.18 217.9-40.15 21.9-86.58 32.46-132.24 28.87zm39.08-3.95c81.72-7.17 153.59-60.7 196.08-129.11 29.25-46.14 46.49-99.28 53.34-153.31-6.71-1.83-18.19-28.6-7.48-13.99 10.01 18.02 35.88 15.44 51.42 6.68 17.51-14.06 15.51-39.29 16.26-59.48-3.58-17.54-4.33-37.94-17.12-51.67-12.32-12.77-31.46-7.83-39.5 6.87-9.44 1.62-16.24 20.58-20.42 19.24 5.61-9.23 12.31-18.88-2.63-22.51-15.74-17.72-14.7-44.02-29.76-62.24-10.9-15.14-10.67-35.45-22.23-49.75-8.81-15.68-20.29-29.37-34.17-40.79-15.64-9.88-29.37-29.79-48.74-28.44-16.4-1.66-31.33 4.9-46.92 7.32-27.29 2.91-56.07 6.16-81.9-5.65-20.08-4.23-35.97-17.34-56.09-21.55-22.1-10.37-39.97 9.06-55.51 21.77-27.46 19.54-47.97 46.65-71.57 70.36-11.27 28-31.4 50.95-44.43 77.99-6.2 10.73-20.16 21.2-7.75 32.11-.16 7.65-5.44-11.7-13.18-6.35-19.007-7.08-43.843-4.1-51.621 17.54-7.983 19.7-12.078 42.07-8.834 63.21 3.521 19.47 22.784 36.12 42.761 34.72 8.044-4.06 10.635 2.37 12.702-9.25 1.303-9.21 5.952-9.08 2.007.06-7.001 13.49-4.395 28.27-.729 42.17 16.914 89.24 67.554 174.82 146.77 221.9 41.69 24.45 90.92 36.96 139.24 32.15h.004zm-82.58-19.92c3.37-4.2 3.37 4.19 0 0zm-14-2c-9.35-2.4-29.49-13.9-26.65-18.09 6.55 8.04 30.08 14.33 29.06 19.1l-1.33-.23-1.08-.78zm-35-26c2.34-4.25 2.6 4.33 0 0zm97.5-66c-19.14-3.77-38.55-7.79-55.72-17.37-22.88-7.11-41.48-22.28-60.7-35.91-23.45-13.58-34.31-39.84-46.57-62.65-4.84-14.26-11.21-27.55-13.38-42.54-5.56-15.48-3.72 4.4-7.75 5.54-5.19-11.67.53-37.02 15.39-37.57-13.06 13.49-4.23 34.91 2.19 49.33 3.84 17.12 10.98 32.62 20.77 47.15 8.44 19.19 23.75 34.08 41.92 44.15 17.46 14.13 37.7 24.8 58.91 32.16 16.14 9.52 35.11 9.87 52.48 15 22.43 4 44.2-5.41 66.44-6.84 17.41-3.9 34.38-12.42 50.14-21.2 18.76-17.43 40.79-32.7 52.12-56.47 11.23-15.31 20.98-31.44 24.28-50.5 5.94-12.46 24.37-35.56 2.12-42.71 10.4-9.62 30.1 23.12 15.09 15.57-2.21 16.26-15.73 26.84-17.28 43.55-5.93 18.69-20.45 33.14-28.77 50.89-13.64 16.83-30.38 31.01-47.07 44.7-17.11 7.22-33.02 18.83-51.72 20.28-24.2 2.77-48.49 12.14-72.89 5.44zm304.68-203.32c-1.54-6.72-9.66-13.62-14.87-5.62 4.26-17.49 17.06 3.32 21.99 3.26 11.67-13.28 8.23-34.52 4.69-50.26-4.71-15.1-24.89-6.14-27-3.04 6.77-18.91 35.19-8.02 31.94 11.11.5 14.51 6.28 43.57-12.87 46.79l-2.05-.76-1.83-1.48zm-577.62-2.59c-21.639-3.97-17.749-34.33-8.597-48.41 4.255-16.33 37.308-17.45 31.016.43-5.597-19.98-27.299-5.67-31.423 7.69-10.035 12.12.919 49.62 17.15 31.91 6.597-8.86 15.895 4.13 3.384 1.17-4.136 4.15-3.35 11.57-11.53 7.21zm584.44-23.09c2.34-4.25 2.6 4.33 0 0zm-.03-13.75c6.61-10.12-18.8-13.83-3.1-14.91 6.35.46 5.92 32.16 3.1 14.91zm-326.59-60.33c-23.84-8.72 7.37-42.17 16.7-17.33 3.49 9.88-6.62 20.53-16.7 17.33zm68.57-3.74c-18.47-15.2 21.13-34.38 21.98-10.34 1.68 11.5-14.24 19.67-21.98 10.34zm52.19-30.79c-15.76-9.88-32.78-19.42-52-18.95-7.23 2.03-20.44-6.42-6.24-7.89 22.02-1.41 44.06 6.91 61.34 20.04 6.4 4.37 4.15 9.51-3.1 6.8zm-167.47-8.06c4.58-18.95 32.43-17.54 47.71-20.4 10.99 9.89-17.2 6.8-22.84 11.94-8.23 2.97-16.25 6.7-24.87 8.46zm231.58-85.83c-4.95-9.43-26.34-19.05-25.21-23.91 8.73 3.83 31.4 19.32 25.21 23.91zm-198.25-29.5c-10.73-5.12-31.77-12.12-35.04-18.05 13.14 4.04 25.58 11.53 37.53 17.75l-.52.44-1.97-.14zm308 179.15c-6.31-3.96-15.71-24.48-4.06-10.37 13.57 20.94 24.19-14.58 29.03-25.48 4.03-19 1.23-38.83 2.07-58.18.33-25.38-1.51-51.09 3.81-76.02.75-28.05 7.05-55.41 14.66-82.29 2.75-28.02 20.68-52.85 18.46-81.58 5.11-18.58-15.44-33.96-31.06-22.55-10.21 2.34-11.49-18.09-25.09-10.29-14.99 6.61-30.51 11.87-46.09 16.83-15.81-3.72-32.16-13.54-49.8-7.01-20.56 2.93-41.67 12.14-62.65 7.32-18.8-2.67-33.39-20.1-53.62-16.54-18.43 3.91-36.56 12.68-55.3 4.59-20.37.52-33.46-17.67-51.28-21.43-16.24-1.82-29.58 9.86-42.07 18.24-9.82 13.59-26.13 24.05-41.19 11.24-20.13-6.5-43.61-5.12-60.54 8.62-12.21 12.32-27.57 10.05-35.88-5.07-11.35-13.19-31.14-28.2-48.291-15.65-14.162 15.85-11.884 41.96-7.639 61.6 11.355 23.09 7.166 49.48 10.215 74.24 1.881 31.78 7.795 63.8 1.838 95.49-3.306 28.28-5.125 57.29-15.43 84.14-3.985 15.17-1.601 45.2 21.387 36.36 14.7-9.94 20.11-28.28 29.12-42.72 12.74-16.42 22.88-34.47 31.52-53.33 8.66-15.91 31.3-23.28 31.96-43.59-3.37-13.18-12.33 11.95-16.33 15.78-1.65 6.75-14.1 13.2-6.29 2.25 8.48-14.83 19.33-28.28 29.16-42.01 0-13.79 9.48-4.44 15.44-14.12 7.14-4.55 23.06-19.66 26.77-14.56-10.79 11.6-30.91 14.54-34.22 31.61-1.84 14.26-4.55-5.86-8.46 5.52-4.78 8.17-3.58 26.56 6.6 11.57 15.08-17.41 34.69-29.72 51.96-44.69 15.91-12.24 37.32-8.3 53.63.83 29.98 13.13 61.96 28.49 95.66 23.66 19.5 1.16 37.7-6.1 56.54-8.11 19.39-6.66 36.53 3.41 50.72 15.73 19.49 13.94 37.72 30.48 49.2 51.88 14.18 15.49 13.18 38.64 26.62 54.67 10.21 15.48 12.86 34.2 20.57 50.7 3.75 6.54 10.02 13.64 18.35 12.72zm-480-119.65c3.4-5.77 3.4 5.76 0 0zm422-9c3.4-5.77 3.4 5.76 0 0zm-12.75-13.75c4.13-4.98 3.81 5.35 0 0zm-12.82-10.81c-10.57-13.52-30.38-18.79-37.83-34.31 9.3 3.55 24.25 19.42 35.97 27.17 2.69 1.02 9.62 13.42 1.86 7.14zm-163.18-25.67c-14.08-6.53-29.39-10.38-43.1-17.36 5.4-5.47 26.13 8.02 36.71 10.42 7.09 1.04 25.98 8.82 8.27 7.15l-1.88-.21zm-277.07-89.45c3.31-8.54 2.75 7.7 0 0zm-3.18-15.32c3.4-5.77 3.4 5.76 0 0zm-4.308-23.66c-2.838-14.44-12.101-40.88 6.768-46.82 7.67 3.06-11.439 6.03-7.905 14.89-3.336 12.4 8.515 28.29 2.357 38.09-.907-1.93-.996-4.08-1.22-6.16z"/></svg>